<svg width="119" height="25" viewBox="0 0 119 25" fill="none" xmlns="http://www.w3.org/2000/svg">
<path d="M6.99963 22.0003L5.48368 18L3.99963 21.9997L6.99963 22.0003Z" fill="#6366F1"/>
<path d="M14.8667 18L17 22H13L14.8667 18Z" fill="#6366F1"/>
<path d="M10.4851 1L0 21.9465H3.53702L10.4856 7.07843L17.2944 21.9465H20.9715L10.4851 1Z" fill="#6366F1"/>
<path d="M24.598 19V4.45455H33.6179V6.34375H26.7926V10.7756H32.9716V12.6577H26.7926V19H24.598ZM36.3168 19V4.45455H45.4361V6.34375H38.5114V10.7756H44.9602V12.6577H38.5114V17.1108H45.5213V19H36.3168ZM48.3675 19V4.45455H50.5621V17.1108H57.1531V19H48.3675ZM59.6566 19V4.45455H61.8512V17.1108H68.4421V19H59.6566ZM83.0142 11.7273C83.0142 13.2803 82.7301 14.6155 82.1619 15.733C81.5938 16.8456 80.8149 17.7027 79.8253 18.304C78.8404 18.9006 77.7206 19.1989 76.4659 19.1989C75.2064 19.1989 74.0819 18.9006 73.0923 18.304C72.1075 17.7027 71.331 16.8433 70.7628 15.7259C70.1946 14.6084 69.9105 13.2756 69.9105 11.7273C69.9105 10.1742 70.1946 8.84138 70.7628 7.72869C71.331 6.61127 72.1075 5.75426 73.0923 5.15767C74.0819 4.55634 75.2064 4.25568 76.4659 4.25568C77.7206 4.25568 78.8404 4.55634 79.8253 5.15767C80.8149 5.75426 81.5938 6.61127 82.1619 7.72869C82.7301 8.84138 83.0142 10.1742 83.0142 11.7273ZM80.8409 11.7273C80.8409 10.5436 80.6491 9.54687 80.2656 8.73722C79.8868 7.92282 79.366 7.30729 78.7031 6.89062C78.045 6.46922 77.2992 6.25852 76.4659 6.25852C75.6278 6.25852 74.8797 6.46922 74.2216 6.89062C73.5634 7.30729 73.0426 7.92282 72.6591 8.73722C72.2803 9.54687 72.0909 10.5436 72.0909 11.7273C72.0909 12.911 72.2803 13.91 72.6591 14.7244C73.0426 15.5341 73.5634 16.1496 74.2216 16.571C74.8797 16.9877 75.6278 17.196 76.4659 17.196C77.2992 17.196 78.045 16.9877 78.7031 16.571C79.366 16.1496 79.8868 15.5341 80.2656 14.7244C80.6491 13.91 80.8409 12.911 80.8409 11.7273Z" fill="#6366F1"/>
</svg>
